<svg width="586" height="211" viewBox="0 0 586 211" fill="none" xmlns="http://www.w3.org/2000/svg">
<g opacity="0.04">
<path d="M551.578 5.27111C554.089 2.79039 557.895 1.03213 562.336 0.300697C571.149 -1.15019 579.486 2.72532 583.814 10.2849L585.526 13.2764L585.736 110.701L585.945 208.125L565.904 207.925L545.862 207.726L545.465 147.692L545.069 87.66L537.034 100.95C532.615 108.26 519.976 129.217 508.947 147.521C476.36 201.605 474.094 205.142 470.5 207.518C468.645 208.746 465.341 209.965 462.546 210.455C456.398 211.533 449.879 209.937 445.903 206.382C444.43 205.064 439.944 198.601 435.935 192.02C431.926 185.439 427.306 177.866 425.668 175.193C424.03 172.519 419.223 164.61 414.988 157.618C410.753 150.625 399.378 131.859 389.711 115.916L372.136 86.9293L371.932 147.514L371.729 208.1H351.902H332.075L332.083 111.436L332.091 14.7722L333.94 11.0276C335.955 6.94787 340.375 2.83601 344.486 1.21685C345.922 0.651447 349.273 0.188508 351.932 0.188508C357.562 0.188508 363.868 2.73205 366.792 6.18278C367.78 7.34873 374.603 18.1721 381.957 30.2347C396.482 54.0629 417.572 88.5268 429.244 107.509C433.29 114.091 441.505 127.553 447.498 137.425C453.491 147.297 458.495 155.481 458.619 155.612C458.743 155.743 460.422 153.219 462.351 150.003C465.688 144.44 491.596 102.04 500.884 86.9427C505.839 78.8873 519.675 56.2445 537.442 27.1122C544.09 16.2119 550.451 6.38321 551.578 5.27111Z" fill="#00011A"/>
<path d="M160.727 81.9566C160.729 19.7396 160.936 3.22416 161.72 2.92052C162.266 2.70962 171.279 2.59744 181.75 2.67148L200.789 2.80609L201.02 80.5858C201.183 135.432 200.986 160.13 200.355 164.348C197.414 183.994 183.918 199.134 163.505 205.688L157.159 207.726L78.8234 207.936L0.487854 208.148V189.445V170.742L76.1723 170.536L151.856 170.331L154.904 168.035C161.187 163.3 160.726 170.12 160.727 81.9566Z" fill="#00011A"/>
<path d="M246.402 105.765C246.402 49.4799 246.64 3.20472 246.931 2.93099C247.221 2.65652 256.146 2.43215 266.763 2.43215H286.066V105.266V208.1H266.234H246.402V105.765Z" fill="#00011A"/>
</g>
</svg>
