<svg width="665" height="227" viewBox="0 0 665 227" fill="none" xmlns="http://www.w3.org/2000/svg">
<path fill-rule="evenodd" clip-rule="evenodd" d="M400.715 106.296C400.728 127.094 400.779 127.465 404.066 130.543C406.715 133.023 409.029 133.471 419.128 133.459C429.518 133.446 431.093 133.055 433.982 129.771C436.24 127.203 436.659 125.165 436.65 116.786C436.641 108.962 436.136 106.843 433.671 104.279C431.177 101.685 429.884 101.381 420.583 101.2L411.847 101.03V104.828V108.626L419.739 108.788C426.861 108.934 427.701 109.046 428.349 109.931C428.879 110.656 429.065 112.571 429.059 117.262C429.055 120.754 428.884 123.862 428.679 124.167C427.739 125.573 425.836 125.886 418.231 125.886C410.793 125.886 410.311 125.826 409.334 124.78C408.335 123.709 408.301 123.09 408.301 105.568V87.4633H404.503H400.704L400.715 106.296ZM486.805 91.0022V94.5412H490.603H494.402V91.0022V87.4633H490.603H486.805V91.0022ZM502.108 107.092L502.252 126.72L503.646 128.821C505.478 131.585 508.419 133.05 512.764 133.361L516.183 133.606V129.746V125.886H513.904C512.298 125.886 511.321 125.587 510.612 124.875C509.634 123.902 509.599 123.19 509.599 105.664V87.4633H505.78H501.965L502.108 107.092ZM549.61 105.567C549.61 120.392 549.478 123.848 548.891 124.652C548.238 125.545 547.397 125.648 539.552 125.793C528.308 126.001 528.845 126.434 528.845 117.068C528.845 108.309 528.389 108.697 538.579 108.697H546.065V104.863V101.03L537.328 101.198C528.916 101.36 528.505 101.417 526.282 102.719C524.702 103.648 523.552 104.857 522.61 106.579C521.288 109.007 521.248 109.344 521.248 117.176C521.248 125.043 521.283 125.339 522.655 127.96C523.795 130.141 524.58 130.923 526.763 132.062C529.432 133.452 529.584 133.47 538.685 133.47C549.109 133.47 551.443 132.987 554.067 130.288C557.075 127.19 557.207 126.165 557.207 105.853V87.4633H553.409H549.61V105.567ZM564.804 90.6954C564.804 92.8294 565.017 94.0002 565.437 94.1423C565.782 94.2606 567.438 94.342 569.109 94.3228L572.148 94.2884L572.295 90.8758L572.447 87.4633H568.623H564.804V90.6954ZM442.834 112.11C443.021 122.865 443.055 123.162 444.378 125.694C445.952 128.705 448.061 130.628 451.605 132.279C454.019 133.405 454.658 133.46 465.28 133.454C475.485 133.448 476.528 133.366 477.688 132.477L478.954 131.506V116.436V101.366L475.029 101.219L471.104 101.071V113.514V125.956L463.036 125.795C455.781 125.65 454.824 125.527 453.54 124.574C451.032 122.713 450.861 121.854 450.853 111.099L450.845 101.114H446.744H442.642L442.834 112.11ZM486.805 117.292V133.47H490.603H494.402V117.292V101.114H490.603H486.805V117.292ZM564.804 117.292V133.47H568.603H572.401V117.292V101.114H568.603H564.804V117.292ZM581.645 102.113C580.51 103.169 580.505 103.266 580.505 118.323V133.47H584.304H588.102V121.084V108.697H595.724C603.985 108.697 605.322 109.024 607.302 111.536C608.295 112.797 608.361 113.498 608.361 123.174V133.47H612.458H616.561L616.384 122.474C616.221 112.113 616.14 111.346 615.026 109.203C613.421 106.123 611.628 104.31 608.614 102.71C606.112 101.385 605.925 101.364 594.433 101.209C583.184 101.056 582.744 101.088 581.645 102.113ZM630.058 101.607C626.234 102.759 623.353 106.071 622.765 109.979C622.588 111.163 622.532 115.284 622.638 119.136C622.861 126.857 623.403 128.657 626.184 130.89C628.848 133.031 630.874 133.424 639.383 133.448L647.359 133.47V129.678V125.886H639.762C629.765 125.886 630.139 126.219 630.139 117.292C630.139 108.293 629.648 108.697 640.522 108.697C648.2 108.697 648.96 108.779 649.892 109.708C650.854 110.669 650.905 111.393 650.905 124.37C650.905 137.346 650.854 138.07 649.892 139.031C648.965 139.952 648.2 140.042 641.282 140.042H633.685V143.834V147.626H641.444C652.029 147.626 654.941 146.535 657.448 141.638C658.446 139.685 658.497 138.784 658.487 124.516C658.477 107.902 658.335 107.033 655.139 104.04C652.49 101.562 650.165 101.109 640.33 101.157C635.422 101.181 630.798 101.383 630.058 101.607ZM478.584 185.02L478.719 210.822H483.02H487.32L487.189 185.164L487.058 159.507L482.753 159.362L478.448 159.218L478.584 185.02ZM609.88 163.001V166.748L611.861 167.083C612.955 167.267 614.889 167.261 616.166 167.07L618.49 166.723V162.988V159.254H614.185H609.88V163.001ZM253.574 174.727C253.017 174.858 252.042 175.077 251.409 175.212C249.772 175.561 246.352 178.789 245.054 181.212C244.032 183.117 243.951 183.974 243.951 192.874C243.951 202.38 243.965 202.504 245.304 204.755C246.79 207.255 247.866 208.29 250.384 209.651C251.782 210.405 253.645 210.582 261.804 210.734L271.553 210.915V206.824V202.733H263.425C253.603 202.733 252.546 202.388 252.04 199.024C251.859 197.815 251.787 194.196 251.882 190.983C252.129 182.605 251.519 183.016 263.703 183.016C272.476 183.016 273.504 183.106 274.261 183.94C275.463 185.266 275.34 188.202 274.034 189.383C272.984 190.332 270.699 190.496 257.246 190.59L255.853 190.599V194.644V198.688H264.239C274.167 198.688 276.339 198.242 279.369 195.579C285.95 189.798 284.568 179.787 276.618 175.632C275.096 174.837 273.415 174.69 264.716 174.597C259.145 174.537 254.131 174.595 253.574 174.727ZM292.5 174.922C289.843 175.992 289.787 176.397 289.787 194.251V210.822H294.083H298.38L298.515 197.045L298.65 183.268H307.26C314.999 183.268 316.049 183.373 317.643 184.297C320.9 186.187 321.186 187.439 321.187 199.826L321.188 210.822H325.524H329.861L329.703 198.056C329.555 186.119 329.474 185.159 328.455 183.268C326.096 178.892 321.899 175.924 316.67 174.934C313.4 174.315 294.03 174.306 292.5 174.922ZM346.258 174.868C342.713 175.789 339.926 178.05 338.086 181.499C337.26 183.047 337.142 184.472 337.142 192.874C337.142 202.388 337.155 202.502 338.503 204.79C340.065 207.444 343.047 209.701 345.845 210.35C346.908 210.596 351.596 210.803 356.261 210.81L364.745 210.822V206.525V202.227L356.261 202.211C349.501 202.198 347.572 202.04 346.765 201.432C345.847 200.74 345.737 199.972 345.59 193.205C345.362 182.665 344.667 183.268 357.026 183.268C364.41 183.268 366.809 183.428 367.453 183.962C368.199 184.58 368.29 186.379 368.29 200.441C368.29 215.091 368.224 216.287 367.364 217.063C366.578 217.773 365.122 217.9 357.741 217.9H349.044V222.236V226.572L358.794 226.406C369.497 226.225 370.316 226.027 373.774 222.772C376.912 219.819 376.965 219.44 376.917 200.614C376.871 182.564 376.795 181.912 374.364 178.828C373.754 178.054 372.081 176.811 370.646 176.066C368.099 174.743 367.795 174.709 357.907 174.592C352.336 174.527 347.094 174.651 346.258 174.868ZM393.674 174.944C391.19 175.457 389.97 176.154 387.869 178.263C385.024 181.118 384.793 182.054 384.586 191.536C384.372 201.373 384.752 203.606 387.129 206.486C390.126 210.115 391.626 210.526 402.604 210.732L412.353 210.915V206.856V202.798L403.507 202.639C395.822 202.501 394.541 202.361 393.757 201.577C392.968 200.789 392.854 199.684 392.854 192.87C392.854 182.258 392.069 182.922 404.533 182.993C415.369 183.055 415.898 183.222 415.898 186.596C415.898 188.055 415.584 188.75 414.564 189.551C413.337 190.514 412.559 190.599 404.941 190.599H396.652V194.683V198.767L406.149 198.601C416.567 198.419 417.978 198.061 421.063 194.817C425.397 190.258 425.19 182.181 420.63 177.86C417.703 175.088 416 174.72 405.516 174.598C400.223 174.537 394.895 174.692 393.674 174.944ZM432.118 175.847L430.586 177.377V194.099V210.822H434.883H439.18L439.315 197.045L439.45 183.268H448.313C456.856 183.268 457.237 183.312 458.879 184.481C461.73 186.511 461.988 187.789 461.988 199.936V210.822H466.293H470.598L470.581 199.067C470.567 189.142 470.424 186.908 469.664 184.711C468.209 180.508 464.963 177.342 460.283 175.559C458.656 174.94 455.453 174.712 445.92 174.54L433.651 174.318L432.118 175.847ZM490.857 178.63V182.949L499.512 183.109C507.907 183.263 508.196 183.304 509.138 184.462C510.029 185.565 510.105 186.608 510.105 198.239V210.822H514.435H518.771L518.614 196.792C518.447 181.517 518.416 181.339 515.347 178.278C512.156 175.09 510.743 174.736 500.353 174.514L490.857 174.312V178.63ZM533.403 178.669V183.016H543.745C554.893 183.016 555.308 183.11 555.976 185.773C556.138 186.418 556.199 190.034 556.103 193.81C555.966 199.585 555.794 200.821 555.034 201.579C554.229 202.379 553.064 202.48 544.576 202.48C535.895 202.48 534.927 202.393 533.96 201.517C532.582 200.27 532.562 197.716 533.925 196.256C534.912 195.201 535.363 195.149 543.548 195.149H552.142V190.978V186.807L542.899 186.942C536.047 187.042 533.099 187.281 531.509 187.867C528.961 188.804 526.206 191.817 525.38 194.572C524.514 197.459 524.676 201.673 525.745 204.025C526.966 206.702 530.359 209.562 533.15 210.264C536.746 211.168 554.001 210.988 556.858 210.016C559.856 208.998 562.946 205.619 563.731 202.505C564.485 199.509 564.465 184.677 563.705 182.459C562.763 179.725 560.778 177.488 558.002 176.044C555.495 174.736 555.166 174.7 544.419 174.513L533.403 174.322V178.669ZM581.771 174.903C577.198 176.041 574.002 178.691 572.675 182.449C572.047 184.222 571.895 187.245 571.895 197.741V210.822H576.2H580.505V198.239C580.505 186.607 580.576 185.565 581.472 184.462C582.424 183.286 582.592 183.266 593.121 183.114L603.803 182.959V178.69V174.421L593.547 174.473C587.905 174.501 582.607 174.694 581.771 174.903ZM609.88 192.621V210.822H614.185H618.49V192.621V174.421H614.185H609.88V192.621ZM633.548 174.758C633.416 174.99 633.335 176.886 633.366 178.971L633.431 182.763L643.272 182.858C648.686 182.91 653.614 183.078 654.222 183.23C656.127 183.707 656.567 185.829 656.385 193.625C656.162 203.231 656.795 202.733 644.837 202.733C636.506 202.733 635.746 202.655 634.51 201.685C633.477 200.875 633.178 200.192 633.178 198.68C633.178 195.428 634.024 195.149 643.926 195.149H652.424V191.105V187.06H643.115C632.388 187.06 630.403 187.577 627.612 191.098C625.677 193.534 625.075 195.498 625.075 199.337C625.075 203.717 626.913 206.839 630.98 209.363C632.834 210.514 633.391 210.577 643.343 210.738C657.124 210.962 659.56 210.25 662.787 205.04C664.321 202.565 664.321 202.555 664.493 193.719C664.6 188.088 664.453 184.125 664.083 182.808C663.354 180.21 660.908 177.435 657.975 175.881C655.833 174.746 655.134 174.674 644.756 174.51C638.724 174.415 633.685 174.527 633.548 174.758Z" fill="#9D9D9B"/>
<path d="M351.933 3.94139C353.537 2.26442 355.967 1.07583 358.802 0.581384C364.429 -0.399417 369.752 2.22043 372.515 7.33072L373.608 9.35299L373.742 75.2118L373.876 141.071L361.08 140.936L348.284 140.801L348.031 100.218L347.778 59.6363L342.648 68.6202C339.827 73.5616 331.757 87.7287 324.716 100.102C303.91 136.663 302.463 139.054 300.169 140.661C298.984 141.49 296.875 142.314 295.09 142.646C291.165 143.374 287.003 142.296 284.464 139.892C283.524 139.001 280.659 134.633 278.1 130.184C275.54 125.735 272.591 120.616 271.545 118.808C270.499 117.001 267.43 111.655 264.726 106.928C262.022 102.201 254.76 89.5148 248.588 78.7376L237.367 59.1423L237.237 100.098L237.107 141.053H224.448H211.79L211.795 75.7088L211.8 10.3641L212.98 7.83275C214.267 5.07487 217.089 2.29525 219.713 1.2007C220.63 0.818491 222.769 0.505544 224.467 0.505544C228.062 0.505544 232.088 2.22498 233.955 4.55767C234.585 5.34586 238.942 12.6624 243.637 20.8167C252.911 36.9246 266.376 60.2222 273.828 73.0546C276.412 77.5035 281.656 86.6038 285.483 93.2773C289.309 99.9508 292.504 105.483 292.583 105.572C292.662 105.661 293.734 103.954 294.966 101.78C297.096 98.0195 313.637 69.3573 319.567 59.1514C322.731 53.706 331.565 38.3994 342.909 18.706C347.153 11.3373 351.214 4.69317 351.933 3.94139Z" fill="#953C3B"/>
<path d="M102.39 55.7808C102.391 13.7221 102.523 2.55764 103.024 2.35238C103.373 2.20981 109.127 2.13398 115.813 2.18403L127.968 2.27503L128.116 54.8541C128.22 91.9299 128.094 108.626 127.691 111.478C125.814 124.758 117.197 134.993 104.164 139.423L100.112 140.801L50.0979 140.943L0.0836182 141.086V128.443V115.8L48.4052 115.661L96.7264 115.522L98.6728 113.97C102.684 110.769 102.39 115.379 102.39 55.7808Z" fill="#953C3B"/>
<path d="M157.09 71.8751C157.09 33.8265 157.242 2.5445 157.428 2.35947C157.614 2.17392 163.311 2.02225 170.09 2.02225H182.414V71.5378V141.053H169.752H157.09V71.8751Z" fill="#953C3B"/>
</svg>
